<svg xmlns="http://www.w3.org/2000/svg" xmlns:xlink="http://www.w3.org/1999/xlink" viewBox="0 0 400 400" width="400" height="400">
  <svg viewBox="0 0 400 400" width="380" height="380" x="9" y="9">
<path fill="#00539f" d="M399.174,199.592v-0.002C399.174,89.364,309.816,0,199.585,0C89.355,0,0,89.364,0,199.59v0.002H399.174z"/>
<path fill="#ffd200" d="M0,199.592c0.002,110.231,89.355,199.588,199.585,199.588c110.231,0,199.587-89.357,199.589-199.588H0z"/>
<path fill="#eee8c5" d="M199.775,380.766c-100.064,0.1-181.252-80.915-181.365-180.979C18.311,99.718,99.325,18.53,199.391,18.418  c100.065-0.099,181.271,80.915,181.368,180.98C380.863,299.468,299.84,380.659,199.775,380.766z"/>
</svg>
  <svg viewBox="0 0 200 200" width="331" height="331" style="font-size: 30px;font-family: &quot;Arial&quot;;font-weight: 400;" x="34" y="34">
    <defs>
      <path id="ddecdbcb-3d19-4cd1-9a7c-e913ce04e4ce_outer" d="M100,175c-41.4,0-75-33.6-75-75s33.6-75,75-75s75,33.6,75,75S141.4,175,100,175z" stroke-dasharray="5, 5" style="stroke: #737373;fill: none;"/>
      <path id="ddecdbcb-3d19-4cd1-9a7c-e913ce04e4ce_inner" d="M100,10c-49.6,0-90,40.4-90,90s40.4,90,90,90s90-40.4,90-90S149.6,10,100,10z" stroke-dasharray="5, 5" style="stroke: #737373;fill: none;"/>
    </defs>
    <text fill="#003c71" text-anchor="middle" letter-spacing="0">
      <textPath xlink:href="#ddecdbcb-3d19-4cd1-9a7c-e913ce04e4ce_outer" startOffset="50%">Future Cybersecurity Scholar</textPath>
    </text>
  </svg>
  <svg viewBox="0 0 200 200" width="327" height="327" style="font-size: 30px;font-family: &quot;Arial&quot;;font-weight: 400;" x="36" y="36">
    <defs>
      <path id="77ce50e0-d0de-4c19-b692-6966dc52fe46_outer" d="M100,175c-41.4,0-75-33.6-75-75s33.6-75,75-75s75,33.6,75,75S141.4,175,100,175z" stroke-dasharray="5, 5" style="stroke: #737373;fill: none;"/>
      <path id="77ce50e0-d0de-4c19-b692-6966dc52fe46_inner" d="M100,10c-49.6,0-90,40.4-90,90s40.4,90,90,90s90-40.4,90-90S149.6,10,100,10z" stroke-dasharray="5, 5" style="stroke: #737373;fill: none;"/>
    </defs>
    <text fill="#003c71" text-anchor="middle" letter-spacing="0">
      <textPath xlink:href="#77ce50e0-d0de-4c19-b692-6966dc52fe46_inner" startOffset="50%"/>
    </text>
  </svg>
  <svg viewBox="0 0 80 80" width="187" height="187" x="106" y="106">
<path fill-rule="evenodd" clip-rule="evenodd" fill="#00711d" d="M80,40.006c-0.414,22.295-17.832,39.989-40.123,39.949  C17.668,79.915-0.073,62.227,0,39.85C0.074,17.677,17.761-0.073,40.175,0.046C62.329,0.162,79.589,17.778,80,40.006z M42.338,72.025  c3.727-0.021,4.468-0.558,5.749-4.156c0.063-0.179,0.143-0.353,0.21-0.53c1.442-3.786,2.303-7.777,5.501-10.794  c1.669-1.573,2.255-4.156,0.839-6.354c-1.846-2.864-4.144-5.227-8.038-5.034c-2.472,0.122-4.956-0.019-7.435,0.038  c-1.233,0.028-2.235-0.297-3.031-1.258c-0.423-0.513-0.991-0.928-1.338-1.482c-0.981-1.572-2.312-2.291-4.181-2.58  c-1.649-0.256-3.287-0.998-4.766-1.82c-1.765-0.978-1.811-2.738-0.014-3.506c2.835-1.209,5.817-3.511,8.833-0.223  c0.062,0.066,0.155,0.153,0.234,0.154c0.722,0.007,1.648,0.259,2.105-0.091c0.379-0.291,0.415-1.367,0.228-1.979  c-0.335-1.081-0.986-2.057-1.451-3.102c-1.022-2.302-0.185-4.052,2.263-4.735c0.544-0.151,1.16-0.095,1.673-0.305  c1.459-0.602,2.346-2.106,1.602-3.101c-1.361-1.813-0.543-2.953,0.774-4.146c0.493-0.445,0.958-0.937,1.358-1.466  c0.648-0.859,0.695-1.844-0.023-2.63c-1.413-1.547-2.821-3.133-4.438-4.446c-1.657-1.346-3.67-0.449-4.184,1.645  c-0.587,2.392-2.196,3.232-4.521,1.794c-2.409-1.491-4.38-1.317-6.439,0.367c-0.144,0.119-0.334,0.182-0.496,0.282  c-4.936,3.096-8.939,7.061-11.655,12.279c-0.675,1.299-0.898,2.322,0.098,3.623c1.851,2.412,3.386,5.071,5.291,7.437  c1.294,1.607,2.83,3.134,4.545,4.26c3.02,1.981,6.241,3.66,9.409,5.409c2.562,1.413,4.073,3.374,3.804,6.444  c-0.074,0.853,0.04,1.72-0.021,2.572c-0.137,1.92,0.454,3.63,1.676,5.028c2.582,2.955,3.779,6.286,3.524,10.235  C39.887,71.957,40.142,72.038,42.338,72.025z M71.794,43.727c0.667-6.304-0.203-12.2-3.154-17.711  c-0.493,0.088-0.699,0.077-0.855,0.16c-3.312,1.773-4.843,4.943-6.297,8.15c-0.166,0.366-0.075,0.959,0.104,1.354  C63.513,39.982,65.812,43.859,71.794,43.727z"/>
</svg>
</svg>
